<svg width="315" height="21" viewBox="0 0 315 21" fill="none" xmlns="http://www.w3.org/2000/svg">
<g clip-path="url(#clip0_5_444)">
<path d="M9.09016 0.785196C9.40824 -0.0742331 10.4916 -0.0742321 10.8097 0.785199L12.687 5.85771C12.8212 6.22002 13.1245 6.46758 13.4725 6.49894L18.3454 6.93797C19.171 7.01235 19.5058 8.17023 18.8768 8.77578L15.1641 12.3498C14.8989 12.605 14.7831 13.0057 14.8641 13.3873L15.9983 18.7311C16.1905 19.6365 15.3141 20.3522 14.6073 19.867L10.4353 17.0034C10.1373 16.7987 9.76255 16.7987 9.46456 17.0034L5.29259 19.867C4.58573 20.3522 3.70928 19.6365 3.90145 18.7311L5.03574 13.3873C5.11677 13.0057 5.00095 12.605 4.73578 12.3498L1.02306 8.77578C0.394019 8.17023 0.728801 7.01235 1.55443 6.93797L6.42743 6.49894C6.77549 6.46758 7.07869 6.22002 7.21279 5.85771L9.09016 0.785196Z" fill="#CF6F49"/>
</g>
<g clip-path="url(#clip1_5_444)">
<path d="M53.5073 0.785196C53.8254 -0.0742331 54.9088 -0.0742321 55.2269 0.785199L57.1042 5.85771C57.2384 6.22002 57.5416 6.46758 57.8897 6.49894L62.7626 6.93797C63.5882 7.01235 63.923 8.17023 63.2939 8.77578L59.5813 12.3498C59.3161 12.605 59.2003 13.0057 59.2813 13.3873L60.4155 18.7311C60.6077 19.6365 59.7313 20.3522 59.0244 19.867L54.8525 17.0034C54.5545 16.7987 54.1797 16.7987 53.8817 17.0034L49.7098 19.867C49.0029 20.3522 48.1265 19.6365 48.3186 18.7311L49.4529 13.3873C49.5339 13.0057 49.4181 12.605 49.153 12.3498L45.4402 8.77578C44.8112 8.17023 45.146 7.01235 45.9716 6.93797L50.8446 6.49894C51.1927 6.46758 51.4959 6.22002 51.63 5.85771L53.5073 0.785196Z" fill="#CF6F49"/>
</g>
<g clip-path="url(#clip2_5_444)">
<path d="M97.9246 0.785196C98.2427 -0.0742331 99.326 -0.0742321 99.6441 0.785199L101.521 5.85771C101.656 6.22002 101.959 6.46758 102.307 6.49894L107.18 6.93797C108.005 7.01235 108.34 8.17023 107.711 8.77578L103.999 12.3498C103.733 12.605 103.617 13.0057 103.699 13.3873L104.833 18.7311C105.025 19.6365 104.149 20.3522 103.442 19.867L99.2697 17.0034C98.9717 16.7987 98.597 16.7987 98.299 17.0034L94.127 19.867C93.4201 20.3522 92.5437 19.6365 92.7359 18.7311L93.8702 13.3873C93.9512 13.0057 93.8354 12.605 93.5702 12.3498L89.8575 8.77578C89.2284 8.17023 89.5632 7.01235 90.3888 6.93797L95.2618 6.49894C95.6099 6.46758 95.9131 6.22002 96.0472 5.85771L97.9246 0.785196Z" fill="#CF6F49"/>
</g>
<g clip-path="url(#clip3_5_444)">
<path d="M31.2988 0.785196C31.6169 -0.0742331 32.7003 -0.0742321 33.0183 0.785199L34.8957 5.85771C35.0298 6.22002 35.3331 6.46758 35.6811 6.49894L40.554 6.93797C41.3796 7.01235 41.7144 8.17023 41.0854 8.77578L37.3728 12.3498C37.1075 12.605 36.9917 13.0057 37.0728 13.3873L38.207 18.7311C38.3992 19.6365 37.5228 20.3522 36.8159 19.867L32.6439 17.0034C32.3459 16.7987 31.9712 16.7987 31.6732 17.0034L27.5012 19.867C26.7943 20.3522 25.9179 19.6365 26.1101 18.7311L27.2444 13.3873C27.3254 13.0057 27.2096 12.605 26.9444 12.3498L23.2317 8.77578C22.6026 8.17023 22.9374 7.01235 23.763 6.93797L28.636 6.49894C28.9841 6.46758 29.2873 6.22002 29.4214 5.85771L31.2988 0.785196Z" fill="#CF6F49"/>
</g>
<g clip-path="url(#clip4_5_444)">
<path d="M75.716 0.785196C76.034 -0.0742331 77.1174 -0.0742321 77.4355 0.785199L79.3128 5.85771C79.447 6.22002 79.7503 6.46758 80.0983 6.49894L84.9712 6.93797C85.7968 7.01235 86.1316 8.17023 85.5026 8.77578L81.7899 12.3498C81.5247 12.605 81.4089 13.0057 81.4899 13.3873L82.6241 18.7311C82.8163 19.6365 81.9399 20.3522 81.2331 19.867L77.0611 17.0034C76.7631 16.7987 76.3883 16.7987 76.0904 17.0034L71.9184 19.867C71.2115 20.3522 70.3351 19.6365 70.5272 18.7311L71.6615 13.3873C71.7426 13.0057 71.6267 12.605 71.3616 12.3498L67.6489 8.77578C67.0198 8.17023 67.3546 7.01235 68.1802 6.93797L73.0532 6.49894C73.4013 6.46758 73.7045 6.22002 73.8386 5.85771L75.716 0.785196Z" fill="#CF6F49"/>
</g>
<defs>
<clipPath id="clip0_5_444">
<rect width="18.5072" height="20" fill="white" transform="translate(0.69635 0.140625)"/>
</clipPath>
<clipPath id="clip1_5_444">
<rect width="18.5072" height="20" fill="white" transform="translate(45.1135 0.140625)"/>
</clipPath>
<clipPath id="clip2_5_444">
<rect width="18.5072" height="20" fill="white" transform="translate(89.5308 0.140625)"/>
</clipPath>
<clipPath id="clip3_5_444">
<rect width="18.5072" height="20" fill="white" transform="translate(22.905 0.140625)"/>
</clipPath>
<clipPath id="clip4_5_444">
<rect width="18.5072" height="20" fill="white" transform="translate(67.3221 0.140625)"/>
</clipPath>
</defs>
</svg>
