<svg xmlns="http://www.w3.org/2000/svg" xmlns:xlink="http://www.w3.org/1999/xlink" width="6px" height="8px" viewBox="0 0 13 20" version="1.1">
<g id="surface1">
<path style=" stroke:none;fill-rule:nonzero;fill:#2A2C1F;fill-opacity:1;" d="M 12.617188 14.117188 C 13.125 14.605469 13.125 15.398438 12.617188 15.882812 C 12.367188 16.128906 12.03125 16.25 11.699219 16.25 C 11.367188 16.25 11.035156 16.128906 10.78125 15.882812 L 6.5 11.769531 L 2.21875 15.882812 C 1.964844 16.128906 1.632812 16.25 1.300781 16.25 C 0.96875 16.25 0.636719 16.128906 0.382812 15.882812 C -0.125 15.394531 -0.125 14.601562 0.382812 14.117188 L 4.664062 10 L 0.382812 5.882812 C -0.125 5.394531 -0.125 4.601562 0.382812 4.117188 C 0.890625 3.625 1.710938 3.625 2.21875 4.117188 L 6.5 8.234375 L 10.78125 4.117188 C 11.289062 3.628906 12.113281 3.628906 12.621094 4.117188 C 13.128906 4.605469 13.128906 5.398438 12.621094 5.882812 L 8.339844 10 Z M 12.617188 14.117188 "/>
</g>
</svg>
